<svg viewBox="7 10 45 45" xmlns="http://www.w3.org/2000/svg"><title/><g fill="none" fill-rule="evenodd"><path d="M21.883 43.823v-18.3h-5.656v18.3h5.656zm0-24.785c-.034-1.637-1.125-2.884-2.898-2.884-1.773 0-2.932 1.247-2.932 2.884 0 1.602 1.125 2.885 2.864 2.885h.034c1.808 0 2.933-1.283 2.933-2.885zm9.227 24.785V33.397c0-.558.04-1.116.204-1.513.45-1.116 1.47-2.27 3.184-2.27 2.246 0 3.654 1.274 3.654 3.783v10.426h5.694V33.118c0-5.734-3.06-8.402-7.144-8.402-3.348 0-4.817 1.87-5.633 3.145l.04-2.446h-5.685c.082 1.752 0 18.41 0 18.41h5.685z" fill="#fff"/></g></svg>