<svg fill="#ffffff" height="60" viewBox="0 0 60 60" width="60" xmlns="http://www.w3.org/2000/svg"><title/><g fill="none" fill-rule="evenodd"><path d="M48.792 22.762s-.375-2.643-1.525-3.807c-1.458-1.527-3.093-1.534-3.842-1.624-5.367-.387-13.416-.387-13.416-.387h-.02s-8.048 0-13.415.388c-.75.09-2.383.098-3.842 1.625-1.15 1.164-1.524 3.807-1.524 3.807s-.384 3.103-.384 6.206v2.91c0 3.103.383 6.206.383 6.206s.373 2.643 1.523 3.807c1.46 1.528 3.375 1.48 4.23 1.64 3.067.294 13.037.385 13.037.385s8.058-.012 13.425-.4c.75-.09 2.384-.097 3.842-1.624 1.15-1.163 1.525-3.806 1.525-3.806s.382-3.103.382-6.206v-2.91c0-3.103-.382-6.206-.382-6.206zm-22.75 12.64l-.003-10.774 10.36 5.406-10.36 5.37z" fill="#fff"/></g></svg>