<?xml version="1.0" encoding="UTF-8" standalone="no"?>
<svg width="262px" height="89px" viewBox="0 0 262 89" version="1.1" xmlns="http://www.w3.org/2000/svg" xmlns:xlink="http://www.w3.org/1999/xlink">
    <!-- Generator: Sketch 3.7.2 (28276) - http://www.bohemiancoding.com/sketch -->
    <title>rme-ef-logo</title>
    <desc>Created with Sketch.</desc>
    <defs></defs>
    <g id="Page-1" stroke="none" stroke-width="1" fill="none" fill-rule="evenodd">
        <g id="EQF-Home" transform="translate(-82.000000, -34.000000)">
            <g id="Header">
                <g transform="translate(0.000000, 1.000000)" id="rme-ef-logo">
                    <g transform="translate(82.000000, 33.000000)">
                        <g id="Group">
                            <path d="M77.597,6.992 L74.405,6.992 C47.251,6.992 39.214,0.706 39.214,0.706 C39.214,0.706 31.182,6.992 4.024,6.992 L0.835,6.992 L0.835,58.515 C0.835,63.728 3.032,68.339 6.73,71.807 C9.077,74.339 12.169,76.283 15.744,77.163 L28.923,80.411 C32.305,81.246 35.764,82.4 38.147,85.176 L40.591,88.133 L43.036,85.176 C45.418,82.402 48.879,81.246 52.262,80.411 L65.438,77.163 C73.41,75.202 78.976,68.095 78.976,59.89 L78.976,8.365 L77.597,6.992" id="Shape" fill="#8B0E04"></path>
                            <path d="M39.214,84.434 L40.541,82.842 C43.195,79.753 46.909,78.502 50.532,77.61 L63.71,74.361 C71.019,72.559 76.126,66.047 76.126,58.518 L76.126,8.465 L74.406,8.465 C47.298,8.465 39.215,2.416 39.215,2.416 C39.215,2.416 31.133,8.465 4.025,8.465 L2.308,8.465 L2.308,58.514 C2.308,66.045 7.413,72.556 14.722,74.359 L27.901,77.608 C31.521,78.502 35.236,79.753 37.891,82.842 L39.214,84.434" id="Shape" fill="#FFFFFF"></path>
                            <path d="M39.214,81.723 C42.053,78.413 45.891,76.979 50.124,75.942 L63.3,72.691 C69.813,71.087 74.407,65.22 74.407,58.519 L74.407,10.186 C48.055,10.186 39.217,4.462 39.217,4.462 C39.217,4.462 30.375,10.186 4.025,10.186 L4.025,58.519 C4.025,65.22 8.62,71.086 15.135,72.693 L28.31,75.94 C32.538,76.979 36.378,78.416 39.214,81.723" id="Shape" fill="#B10F21"></path>
                            <path d="M4.392,61.721 C4.299,61.304 4.223,60.88 4.166,60.449 L39.213,25.268 L39.213,26.764 L4.392,61.721 M4.024,46.799 L4.024,45.298 L39.212,9.979 L39.212,11.479" id="Shape" fill="#9D1013"></path>
                            <path d="M33.187,6.858 L33.189,6.856 C34.015,6.612 34.742,6.375 35.387,6.148 L35.385,6.149 C34.744,6.377 34.012,6.615 33.187,6.858" id="Shape" fill="#C17960"></path>
                            <path d="M4.024,37.623 L4.024,36.126 L33.185,6.856 C34.011,6.615 34.742,6.377 35.384,6.149 L4.024,37.623" id="Shape" fill="#9D1013"></path>
                            <path d="M37.973,5.111 L37.975,5.109 C38.818,4.717 39.209,4.469 39.215,4.464 C39.183,4.482 38.793,4.73 37.973,5.11" id="Shape" fill="#C17960"></path>
                            <path d="M4.024,40.683 L4.024,39.185 L37.971,5.111 C38.793,4.731 39.181,4.484 39.212,4.465 L39.212,5.367 L4.024,40.683 M4.024,49.856 L4.024,48.356 L39.212,13.036 L39.212,14.533 M4.024,52.913 L4.024,51.415 L39.212,16.093 L39.212,17.591 M4.045,59.01 C4.04,58.845 4.023,58.681 4.023,58.515 L4.023,57.533 L39.211,22.209 L39.211,23.705 L4.045,59.01 M4.024,55.973 L4.024,54.477 L39.212,19.154 L39.212,20.651" id="Shape" fill="#9D1013"></path>
                            <path id="Shape" fill="#C17960"></path>
                            <path d="M4.024,31.508 L4.024,30.011 L25.336,8.623 C25.392,8.613 25.446,8.603 25.501,8.595 C26.072,8.498 26.622,8.399 27.154,8.299 L4.024,31.508" id="Shape" fill="#9D1013"></path>
                            <path id="Shape" fill="#C17960"></path>
                            <path d="M4.024,22.336 L4.024,20.839 L15.007,9.818 C15.557,9.78 16.097,9.737 16.624,9.695 L4.024,22.336" id="Shape" fill="#9D1013"></path>
                            <path id="Shape" fill="#C17960"></path>
                            <path d="M4.024,34.565 L4.024,33.068 L29.106,7.896 C29.795,7.745 30.443,7.591 31.056,7.438 L4.024,34.565" id="Shape" fill="#9D1013"></path>
                            <path id="Shape" fill="#C17960"></path>
                            <path d="M4.024,16.223 L4.024,14.726 L8.61,10.124 C9.131,10.111 9.645,10.094 10.15,10.077 L4.024,16.223" id="Shape" fill="#9D1013"></path>
                            <path id="Shape" fill="#C17960"></path>
                            <path d="M4.024,13.166 L4.024,11.668 L5.51,10.18 C6.019,10.176 6.524,10.169 7.02,10.16 L4.024,13.166" id="Shape" fill="#9D1013"></path>
                            <path id="Shape" fill="#C17960"></path>
                            <path d="M4.024,19.279 L4.024,17.782 L11.773,10.007 C12.307,9.981 12.831,9.952 13.347,9.924 L4.024,19.279 M5.126,64.043 C4.978,63.685 4.845,63.319 4.725,62.946 L39.214,28.321 L39.214,29.818 L5.124,64.044" id="Shape" fill="#9D1013"></path>
                            <path id="Shape" fill="#C17960"></path>
                            <path d="M4.024,25.395 L4.024,23.895 L18.333,9.54 C18.899,9.483 19.458,9.428 19.998,9.365 L4.024,25.395" id="Shape" fill="#9D1013"></path>
                            <path id="Shape" fill="#C17960"></path>
                            <path d="M4.024,28.451 L4.024,26.954 L21.763,9.151 C22.358,9.075 22.936,8.994 23.495,8.913 L4.024,28.451 M4.024,43.742 L4.024,42.239 L39.212,6.926 L39.212,8.425" id="Shape" fill="#9D1013"></path>
                            <path id="Shape" fill="#C17960"></path>
                            <path d="M34.026,77.858 C33.683,77.696 33.338,77.546 32.986,77.401 L39.212,71.148 L39.212,72.644 L34.025,77.855" id="Shape" fill="#9D1013"></path>
                            <path id="Shape" fill="#C17960"></path>
                            <path d="M29.526,76.254 C29.159,76.152 28.787,76.057 28.413,75.963 C28.389,75.958 28.367,75.95 28.34,75.947 L39.213,65.025 L39.213,66.524 L29.526,76.254" id="Shape" fill="#9D1013"></path>
                            <path id="Shape" fill="#C17960"></path>
                            <path d="M31.856,76.974 C31.487,76.846 31.111,76.721 30.732,76.604 L39.212,68.086 L39.212,69.586 L31.856,76.974" id="Shape" fill="#9D1013"></path>
                            <polygon id="Shape" fill="#C17960" points="27.093 75.641 25.895 75.346"></polygon>
                            <polyline id="Shape" fill="#9D1013" points="27.093 75.641 25.895 75.346 39.212 61.966 39.212 63.467 27.093 75.641"></polyline>
                            <path d="M37.731,80.255 C37.462,80.023 37.195,79.785 36.915,79.576 L36.917,79.576 C37.197,79.785 37.474,80.007 37.745,80.243 L37.731,80.255" id="Shape" fill="#C17960"></path>
                            <path d="M37.744,80.241 C37.473,80.008 37.199,79.788 36.915,79.573 L39.211,77.267 L39.211,78.766 L37.744,80.241" id="Shape" fill="#9D1013"></path>
                            <path d="M35.984,78.948 C35.677,78.752 35.363,78.568 35.045,78.393 L35.057,78.381 C35.374,78.557 35.687,78.74 35.993,78.939 L35.984,78.948" id="Shape" fill="#C17960"></path>
                            <path d="M35.994,78.937 C35.687,78.742 35.375,78.558 35.055,78.382 L39.212,74.204 L39.212,75.704 L35.994,78.937 M6.153,66.072 C5.962,65.759 5.784,65.44 5.617,65.113 L39.212,31.378 L39.212,32.878 L6.153,66.072 M24.647,75.035 L23.447,74.742 L39.211,58.905 L39.211,60.406" id="Shape" fill="#9D1013"></path>
                            <path d="M39.212,81.721 C38.995,81.468 38.759,81.243 38.53,81.012 L38.545,80.995 C38.773,81.226 38.996,81.466 39.212,81.721" id="Shape" fill="#C17960"></path>
                            <path d="M39.212,81.721 C38.995,81.468 38.773,81.226 38.545,80.994 L39.212,80.323 L39.212,81.721 M8.921,69.41 C8.658,69.173 8.404,68.929 8.159,68.676 L39.213,37.496 L39.213,38.992 L8.921,69.41 M10.645,70.74 C10.345,70.544 10.055,70.335 9.771,70.116 L39.21,40.555 L39.21,42.052 L10.645,70.74 M12.618,71.819 C12.278,71.662 11.944,71.498 11.618,71.321 L39.212,43.613 L39.212,45.111 L12.618,71.819 M7.424,67.856 C7.195,67.581 6.978,67.299 6.771,67.01 L39.214,34.439 L39.214,35.935 L7.425,67.856" id="Shape" fill="#9D1013"></path>
                            <polyline id="Shape" fill="#C17960" points="17.307 73.229 16.109 72.935 16.109 72.931"></polyline>
                            <path d="M17.309,73.229 L16.109,72.935 L39.213,49.733 L39.213,51.23 M14.87,72.617 C14.483,72.512 14.102,72.396 13.73,72.261 L39.212,46.672 L39.212,48.169 L14.87,72.617" id="Shape" fill="#9D1013"></path>
                            <polygon id="Shape" fill="#C17960" points="19.754 73.832 18.556 73.536"></polygon>
                            <path d="M19.754,73.832 L18.556,73.536 L39.212,52.79 L39.212,54.288 L19.754,73.832 M22.199,74.433 L21.002,74.138 L39.214,55.846 L39.214,57.346" id="Shape" fill="#9D1013"></path>
                            <path d="M5.398,59.89 L5.398,11.56 C31.056,11.384 39.216,5.838 39.216,5.838 C39.216,5.838 49.079,11.354 74.404,11.548 L74.404,10.187 C48.053,10.187 39.213,4.465 39.213,4.465 C39.213,4.465 30.374,10.184 4.023,10.184 L4.023,58.516 C4.023,62.837 5.937,66.801 9.036,69.508 C6.761,66.911 5.398,63.525 5.398,59.89 M39.2,81.707 L39.213,81.723 L39.216,81.721" id="Shape" fill="#8B0E04"></path>
                            <path d="M71.276,31.909 L69.901,30.536 L51.192,30.536 L51.19,31.422 L50.3,30.535 L42.355,30.535 L39.568,36.313 L37.436,31.908 L36.061,30.534 L28.137,30.534 L28.137,35.874 C27.901,35.411 27.575,34.975 27.134,34.533 L24.691,32.098 C23.535,30.943 22.57,30.536 21.004,30.536 L8.529,30.536 L8.529,52.147 L9.902,53.519 L17.504,53.519 L17.504,47.361 L18.436,47.361 L20.609,52.148 L21.984,53.521 L37.03,53.521 L37.03,47.563 L37.3,48.134 L37.636,48.835 L39.009,50.208 L42.193,50.208 L42.78,48.97 L42.78,52.148 L44.155,53.521 L51.674,53.521 L51.674,52.664 L52.52,53.51 L71.274,53.522 L71.274,46.659 L70.069,45.444 L70.069,39.19 L69.667,38.771 L71.274,38.771 L71.276,31.909 L71.276,31.909 L71.276,31.909 Z M19.64,38.824 L19.64,38.89 L19.614,38.913 L19.179,39.346 L19.124,39.404 L17.503,39.404 L17.503,38.303 L19.641,38.303 L19.64,38.824 L19.64,38.824 L19.64,38.824 Z M28.137,49.213 L26.127,44.742 L27.142,43.712 C27.57,43.279 27.896,42.892 28.137,42.461 L28.137,49.213 L28.137,49.213 Z" id="Shape" fill="#8B0E04"></path>
                            <path d="M23.287,43.104 L24.892,41.477 C25.767,40.6 26.012,40.135 26.012,38.956 L26.012,36.662 C26.012,35.619 25.767,34.907 24.892,34.032 L23.823,32.965 C22.946,32.09 22.289,31.762 21.004,31.762 L9.756,31.762 L9.756,50.921 L14.901,50.921 L14.901,44.76 L18.6,44.76 L21.398,50.921 L26.804,50.921 L23.287,43.104 L23.287,43.104 Z M14.901,35.701 L19.143,35.701 C19.582,35.701 19.83,35.81 20.126,36.111 L20.485,36.471 C20.786,36.77 20.867,36.989 20.867,37.427 L20.867,38.823 C20.867,39.261 20.785,39.478 20.485,39.779 L20.043,40.217 C19.744,40.519 19.526,40.63 19.089,40.63 L14.901,40.63 L14.901,35.701 L14.901,35.701 Z M44.007,39.268 L44.007,50.921 L49.069,50.921 L49.069,31.761 L43.123,31.761 L39.213,39.869 L35.29,31.761 L29.363,31.761 L29.363,50.918 L34.426,50.918 L34.426,39.221 L38.409,47.606 L40.041,47.606 L44.007,39.268 Z M57.564,46.513 L57.564,43.31 L67.468,43.31 L67.468,39.044 L57.564,39.044 L57.564,36.167 L68.673,36.167 L68.673,31.764 L52.419,31.764 C52.419,31.764 52.409,50.674 52.399,50.918 L68.673,50.918 L68.673,46.513 L57.564,46.513 L57.564,46.513 Z" id="Shape" fill="#FFFFFF"></path>
                        </g>
                        <g id="Group" transform="translate(98.000000, 19.000000)" fill="#313131">
                            <polygon id="Shape" points="15.2 1.316 15.2 5.012 4.644 5.012 4.644 9.296 14.332 9.296 14.332 12.713 4.644 12.713 4.644 17.612 15.424 17.612 15.424 21.308 0.248 21.308 0.248 1.316"></polygon>
                            <path d="M31.776,20.608 C30.45,21.374 28.836,21.756 26.931,21.756 C25.401,21.756 24.024,21.489 22.801,20.958 C21.578,20.426 20.547,19.693 19.707,18.76 C18.867,17.827 18.223,16.73 17.775,15.47 C17.327,14.21 17.103,12.852 17.103,11.396 C17.103,9.903 17.327,8.517 17.775,7.238 C18.222,5.96 18.867,4.844 19.707,3.892 C20.547,2.94 21.578,2.194 22.801,1.652 C24.024,1.11 25.401,0.84 26.931,0.84 C28.481,0.84 29.862,1.111 31.076,1.652 C32.289,2.194 33.316,2.94 34.156,3.892 C34.996,4.844 35.639,5.96 36.088,7.238 C36.536,8.517 36.76,9.903 36.76,11.396 C36.76,12.852 36.536,14.206 36.088,15.457 C35.64,16.707 34.996,17.809 34.156,18.761 L36.648,21.029 L34.604,23.157 L31.776,20.608 L31.776,20.608 Z M31.131,15.988 C31.504,15.484 31.803,14.859 32.027,14.112 C32.251,13.366 32.363,12.461 32.363,11.396 C32.363,10.519 32.264,9.67 32.069,8.848 C31.873,8.027 31.56,7.294 31.131,6.65 C30.701,6.006 30.142,5.493 29.451,5.11 C28.76,4.728 27.92,4.536 26.93,4.536 C25.94,4.536 25.101,4.727 24.41,5.109 C23.72,5.491 23.159,6.003 22.73,6.645 C22.3,7.288 21.988,8.019 21.792,8.839 C21.596,9.658 21.498,10.506 21.498,11.382 C21.498,12.22 21.596,13.035 21.792,13.826 C21.988,14.618 22.301,15.33 22.73,15.964 C23.159,16.598 23.719,17.106 24.41,17.487 C25.101,17.868 25.94,18.059 26.93,18.059 C27.397,18.059 27.751,18.042 27.994,18.009 C28.236,17.975 28.47,17.907 28.694,17.807 L26.82,16.1 L28.864,13.916 L31.131,15.988 L31.131,15.988 Z" id="Shape"></path>
                            <path d="M54.036,19.782 C52.524,21.098 50.433,21.757 47.765,21.757 C45.058,21.757 42.962,21.104 41.479,19.797 C39.995,18.49 39.252,16.475 39.252,13.749 L39.252,1.316 L43.648,1.316 L43.648,13.749 C43.648,14.29 43.694,14.822 43.788,15.345 C43.882,15.868 44.077,16.329 44.376,16.731 C44.675,17.133 45.09,17.46 45.622,17.711 C46.154,17.962 46.868,18.089 47.765,18.089 C49.332,18.089 50.415,17.738 51.013,17.039 C51.61,16.339 51.909,15.242 51.909,13.749 L51.909,1.316 L56.305,1.316 L56.305,13.749 C56.304,16.455 55.547,18.466 54.036,19.782 L54.036,19.782 Z" id="Shape"></path>
                            <polygon id="Shape" points="64.06 1.316 64.06 21.308 59.664 21.308 59.664 1.316"></polygon>
                            <path d="M76.52,1.316 C77.77,1.316 78.834,1.498 79.711,1.862 C80.589,2.226 81.303,2.707 81.854,3.304 C82.404,3.902 82.806,4.583 83.058,5.348 C83.31,6.114 83.436,6.907 83.436,7.728 C83.436,8.531 83.31,9.32 83.058,10.094 C82.806,10.868 82.404,11.555 81.854,12.152 C81.303,12.75 80.589,13.23 79.711,13.594 C78.834,13.958 77.77,14.14 76.52,14.14 L71.9,14.14 L71.9,21.308 L67.504,21.308 L67.504,1.316 L76.52,1.316 L76.52,1.316 Z M75.316,10.724 C75.82,10.724 76.305,10.687 76.772,10.612 C77.238,10.538 77.649,10.393 78.003,10.178 C78.357,9.963 78.643,9.66 78.857,9.268 C79.071,8.876 79.179,8.363 79.179,7.728 C79.179,7.094 79.071,6.58 78.857,6.188 C78.642,5.796 78.357,5.493 78.003,5.278 C77.649,5.063 77.237,4.919 76.772,4.844 C76.305,4.769 75.82,4.732 75.316,4.732 L71.9,4.732 L71.9,10.724 L75.316,10.724 L75.316,10.724 Z" id="Shape"></path>
                            <polygon id="Shape" points="91.948 1.316 96.624 15.064 96.68 15.064 101.105 1.316 107.293 1.316 107.293 21.308 103.177 21.308 103.177 7.14 103.121 7.14 98.221 21.308 94.833 21.308 89.933 7.28 89.877 7.28 89.877 21.308 85.761 21.308 85.761 1.316"></polygon>
                            <polygon id="Shape" points="125.687 1.316 125.687 5.012 115.131 5.012 115.131 9.296 124.819 9.296 124.819 12.713 115.131 12.713 115.131 17.612 125.911 17.612 125.911 21.308 110.734 21.308 110.734 1.316"></polygon>
                            <polygon id="Shape" points="132.827 1.316 141.171 14.728 141.228 14.728 141.228 1.316 145.344 1.316 145.344 21.308 140.948 21.308 132.632 7.924 132.576 7.924 132.576 21.308 128.46 21.308 128.46 1.316"></polygon>
                            <polygon id="Shape" points="147.219 5.012 147.219 1.316 163.599 1.316 163.599 5.012 157.607 5.012 157.607 21.308 153.211 21.308 153.211 5.012"></polygon>
                            <polygon id="Shape" points="14.304 25.315 14.304 29.012 4.644 29.012 4.644 33.631 13.016 33.631 13.016 37.047 4.644 37.047 4.644 45.307 0.248 45.307 0.248 25.315"></polygon>
                            <polygon id="Shape" points="20.828 25.315 20.828 45.307 16.432 45.307 16.432 25.315"></polygon>
                            <polygon id="Shape" points="28.639 25.315 36.983 38.727 37.04 38.727 37.04 25.315 41.156 25.315 41.156 45.307 36.76 45.307 28.444 31.924 28.388 31.924 28.388 45.307 24.272 45.307 24.272 25.315"></polygon>
                            <path d="M53.223,25.315 C54.511,25.315 55.71,25.522 56.822,25.932 C57.932,26.342 58.893,26.957 59.706,27.78 C60.518,28.602 61.152,29.628 61.61,30.86 C62.067,32.092 62.296,33.538 62.296,35.2 C62.296,36.655 62.109,38.001 61.736,39.231 C61.362,40.463 60.798,41.528 60.042,42.424 C59.286,43.319 58.343,44.024 57.214,44.537 C56.084,45.051 54.754,45.307 53.224,45.307 L44.6,45.307 L44.6,25.315 L53.223,25.315 L53.223,25.315 Z M52.916,41.612 C53.551,41.612 54.166,41.508 54.764,41.303 C55.362,41.098 55.894,40.758 56.361,40.282 C56.827,39.805 57.201,39.186 57.48,38.421 C57.76,37.655 57.901,36.722 57.901,35.62 C57.901,34.612 57.802,33.702 57.607,32.89 C57.411,32.078 57.088,31.384 56.64,30.804 C56.193,30.226 55.6,29.783 54.863,29.474 C54.125,29.167 53.215,29.013 52.133,29.013 L48.997,29.013 L48.997,41.613 L52.916,41.613 L52.916,41.612 Z" id="Shape"></path>
                            <polygon id="Shape" points="79.879 25.315 79.879 29.012 69.323 29.012 69.323 33.295 79.011 33.295 79.011 36.711 69.323 36.711 69.323 41.611 80.103 41.611 80.103 45.306 64.926 45.306 64.926 25.315"></polygon>
                            <path d="M93.431,25.315 C94.327,25.315 95.134,25.46 95.853,25.751 C96.572,26.04 97.188,26.437 97.702,26.94 C98.215,27.444 98.606,28.028 98.878,28.69 C99.149,29.352 99.284,30.067 99.284,30.833 C99.284,32.009 99.036,33.026 98.542,33.884 C98.047,34.743 97.239,35.396 96.12,35.845 L96.12,35.9 C96.661,36.05 97.109,36.279 97.464,36.588 C97.818,36.895 98.108,37.26 98.332,37.68 C98.556,38.1 98.719,38.561 98.821,39.065 C98.923,39.569 98.994,40.073 99.031,40.577 C99.05,40.895 99.069,41.268 99.088,41.698 C99.107,42.128 99.139,42.565 99.186,43.014 C99.233,43.461 99.307,43.887 99.411,44.287 C99.513,44.689 99.667,45.029 99.873,45.308 L95.477,45.308 C95.235,44.673 95.085,43.917 95.029,43.04 C94.973,42.163 94.889,41.323 94.777,40.52 C94.628,39.475 94.31,38.709 93.825,38.223 C93.34,37.739 92.547,37.496 91.445,37.496 L87.049,37.496 L87.049,45.307 L82.653,45.307 L82.653,25.315 L93.431,25.315 L93.431,25.315 Z M91.863,34.36 C92.872,34.36 93.628,34.135 94.132,33.688 C94.636,33.239 94.888,32.512 94.888,31.504 C94.888,30.533 94.636,29.828 94.132,29.389 C93.628,28.951 92.872,28.731 91.863,28.731 L87.048,28.731 L87.048,34.36 L91.863,34.36 L91.863,34.36 Z" id="Shape"></path>
                        </g>
                    </g>
                </g>
            </g>
        </g>
    </g>
</svg>