<svg xmlns="http://www.w3.org/2000/svg" xmlns:xlink="http://www.w3.org/1999/xlink" width="367.626" height="132.616" viewBox="0 0 367.626 132.616"><defs><path id="a" d="M0 0h367.626v132.616H0z"/></defs><clipPath id="b"><use xlink:href="#a" overflow="visible"/></clipPath><path clip-path="url(#b)" fill="#FFF" d="M132.14 9.533h14.12c4.887 0 9.697 2.21 9.697 7.797 0 2.98-1.435 5.815-4.344 6.944v.073c2.948.702 3.796 4 4.037 6.637.075 1.167.188 5.235 1.162 6.245h-7.138c-.624-.93-.737-3.653-.812-4.425-.194-2.792-.662-5.66-4.04-5.66h-5.466v10.084h-7.215V9.532zm7.214 12.02h6.05c2.178 0 3.337-1.157 3.337-3.255 0-2.055-1.628-2.986-3.646-2.986h-5.74v6.24zM172.287 8.948c8.725 0 13.654 6.406 13.654 14.432 0 8.03-4.93 14.43-13.653 14.43-8.73 0-13.656-6.4-13.656-14.43 0-8.026 4.926-14.432 13.657-14.432m0 22.65c4.655 0 6.438-4.105 6.438-8.218 0-4.11-1.782-8.224-6.438-8.224-4.657 0-6.437 4.114-6.437 8.224 0 4.113 1.78 8.22 6.437 8.22M207.982 19.137c-.388-2.792-2.562-4.262-5.588-4.262-4.658 0-6.438 4.108-6.438 8.22 0 4.11 1.78 8.22 6.438 8.22 3.376 0 5.312-1.935 5.588-5.123h7.21c-.385 7.14-5.627 11.33-12.637 11.33-8.38 0-13.812-6.398-13.812-14.426 0-8.033 5.432-14.433 13.812-14.433 5.97 0 12.45 3.804 12.637 10.474h-7.21zM218.624 9.532h7.214v10.625l9.114-10.625h8.96L233.67 20.43l11.52 16.796h-8.962l-7.447-11.634-2.945 3.1v8.534h-7.214M262.085 26.91v10.316h-7.22V26.91L244.784 9.53h8.17l5.517 11.25 5.513-11.25h8.182M132.14 44.44h10.625l4.778 18.465h.075l4.77-18.466h10.63v27.697h-6.79V51.114h-.074l-5.823 21.023h-5.503l-5.822-21.023h-.072v21.023h-6.792M180.103 43.86c8.724 0 13.645 6.4 13.645 14.433 0 8.027-4.92 14.43-13.645 14.43-8.73 0-13.656-6.403-13.656-14.43 0-8.032 4.925-14.434 13.656-14.434m0 22.656c4.65 0 6.44-4.118 6.44-8.223 0-4.11-1.79-8.227-6.44-8.227-4.657 0-6.446 4.117-6.446 8.227 0 4.105 1.79 8.223 6.446 8.223M221.175 60.693c0 8.033-3.684 12.03-12.064 12.03-8.375 0-12.055-3.997-12.055-12.03V44.44h7.213v16.68c0 3.574 1.32 5.395 4.843 5.395 3.53 0 4.856-1.82 4.856-5.396V44.44h7.21v16.253zM225.746 44.44h7.408l9.618 17.07h.084V44.44h6.784v27.697h-7.406l-9.624-17.263h-.077v17.263h-6.787M276.91 50.65h-8.263v21.487h-7.212V50.65h-8.27v-6.21h23.744M284.83 44.442h7.33l10.358 27.694h-7.523l-1.71-4.963h-9.66l-1.74 4.963h-7.415l10.36-27.694zm.467 17.376h6.28l-3.06-9.694h-.083l-3.137 9.694zM304.916 44.44h7.214v27.697h-7.214zM316.693 44.44h7.402l9.625 17.07h.073V44.44h6.797v27.697h-7.41l-9.616-17.263h-.08v17.263h-6.79M132.14 79.35h22.068v5.78h-14.852v4.85h13.577v5.592h-13.577v5.27h15.24v6.207h-22.455M181.197 109.914l-3.807-3.718c-1.826.93-3.995 1.44-6.436 1.44-8.73 0-13.66-6.41-13.66-14.434s4.928-14.434 13.66-14.434c8.722 0 13.65 6.41 13.65 14.434 0 3.948-1.2 7.485-3.45 10.085l3.333 3.215-3.29 3.412zm-7.765-14.153l2.715 2.636c.895-1.475 1.243-3.327 1.243-5.192 0-4.11-1.782-8.228-6.436-8.228s-6.444 4.117-6.444 8.228c0 4.11 1.79 8.22 6.444 8.22.542 0 1.007-.028 1.433-.154l-2.177-2.14 3.222-3.37zM212.11 95.607c0 8.023-3.684 12.03-12.064 12.03s-12.063-4.007-12.063-12.03V79.35h7.212v16.685c0 3.564 1.326 5.39 4.852 5.39 3.53 0 4.854-1.825 4.854-5.39V79.35h7.21v16.257zM216.674 79.35h7.213v27.7h-7.213zM228.45 79.35h13.147c5.16 0 10.01 2.37 10.01 8.925 0 6.864-3.917 9.54-10.01 9.54h-5.934v9.234h-7.213v-27.7zm7.214 12.88h4.85c2.252 0 3.874-.936 3.874-3.452 0-2.6-1.664-3.648-3.873-3.648h-4.85v7.1zM254.76 79.35h10.627l4.773 18.465h.08l4.768-18.465h10.628v27.7h-6.79V86.017h-.074l-5.82 21.03h-5.507l-5.815-21.03h-.077v21.03h-6.794M290.196 79.35h22.073v5.78h-14.854v4.85h13.574v5.592h-13.574v5.27h15.244v6.207h-22.464M317.1 79.35h7.407l9.614 17.068h.08V79.35h6.792v27.7h-7.412l-9.617-17.258h-.077v17.257H317.1M367.626 85.563h-8.265v21.486h-7.215V85.562h-8.263V79.35h23.744"/><path clip-path="url(#b)" fill="#8B0E04" d="M116.446 9.535h-4.842C70.41 9.535 58.222 0 58.222 0S46.038 9.535 4.84 9.535H.002v78.16c0 7.905 3.332 14.9 8.943 20.157 3.56 3.845 8.25 6.794 13.673 8.13l19.99 4.927c5.13 1.264 10.38 3.012 13.992 7.226l3.708 4.48 3.708-4.48c3.614-4.214 8.864-5.962 13.995-7.227L98 115.98c12.093-2.977 20.535-13.754 20.535-26.203v-78.16l-2.087-2.082"/><path clip-path="url(#b)" fill="#FFF" d="M58.222 127.01l2.012-2.417c4.025-4.684 9.663-6.585 15.155-7.94l19.99-4.928c11.086-2.732 18.833-12.61 18.833-24.03V11.77h-2.608c-41.123 0-53.382-9.176-53.382-9.176S45.963 11.77 4.84 11.77H2.235v75.924c0 11.42 7.744 21.298 18.83 24.03l19.99 4.928c5.493 1.355 11.13 3.257 15.156 7.94l2.012 2.42"/><path clip-path="url(#b)" fill="#B10F21" d="M58.222 122.894c4.306-5.018 10.128-7.192 16.548-8.77l19.986-4.928c9.88-2.434 16.848-11.33 16.848-21.5V14.38C71.63 14.38 58.222 5.7 58.222 5.7S44.812 14.38 4.84 14.38v73.314c0 10.17 6.97 19.067 16.85 21.5l19.988 4.928c6.417 1.58 12.242 3.754 16.544 8.772"/><path clip-path="url(#b)" fill="#9D1013" d="M5.4 92.553c-.143-.63-.258-1.272-.344-1.93L58.22 37.258v2.272L5.4 92.552M4.842 69.92v-2.278L58.22 14.066v2.275"/><path clip-path="url(#b)" fill="#C17960" d="M49.078 9.333l.004-.003c1.253-.37 2.357-.73 3.335-1.075l-.005.003c-.973.344-2.08.706-3.334 1.075"/><path clip-path="url(#b)" fill="#9D1013" d="M4.842 56v-2.27l44.235-44.4c1.253-.366 2.362-.728 3.335-1.072L4.842 56"/><path clip-path="url(#b)" fill="#C17960" d="M56.34 6.682l.002-.004c1.277-.594 1.87-.97 1.878-.977-.047.03-.64.405-1.88.982"/><path clip-path="url(#b)" fill="#9D1013" d="M4.842 60.64v-2.27L56.337 6.682c1.246-.575 1.836-.95 1.883-.98v1.367L4.842 60.64M4.842 74.555v-2.272l53.378-53.58v2.273M4.842 79.196v-2.272L58.22 23.34v2.273M4.873 88.442c-.007-.25-.03-.496-.03-.748V86.2L58.22 32.615v2.27L4.873 88.443M4.842 83.837v-2.273L58.22 27.982v2.272"/><path clip-path="url(#b)" fill="#C17960" d="M37.42 11.966c.874-.15 1.704-.304 2.513-.458l-.003.003c-.806.158-1.643.31-2.51.456"/><path clip-path="url(#b)" fill="#9D1013" d="M4.842 46.725v-2.27L37.17 12.008c.085-.017.168-.03.25-.044.866-.147 1.7-.297 2.51-.45L4.84 46.725"/><path clip-path="url(#b)" fill="#C17960" d="M21.503 13.82v-.002c.842-.056 1.653-.12 2.455-.188l-.003.003c-.802.068-1.618.133-2.452.188"/><path clip-path="url(#b)" fill="#9D1013" d="M4.842 32.812v-2.27l16.662-16.72c.833-.058 1.653-.123 2.452-.187L4.842 32.812"/><path clip-path="url(#b)" fill="#C17960" d="M42.888 10.907l.005-.003c1.048-.23 2.03-.46 2.958-.697l-.006.007c-.927.23-1.912.464-2.956.693"/><path clip-path="url(#b)" fill="#9D1013" d="M4.842 51.362V49.09L42.89 10.906c1.044-.23 2.028-.463 2.956-.695L4.842 51.363"/><path clip-path="url(#b)" fill="#C17960" d="M11.796 14.288l.005-.003c.794-.02 1.568-.047 2.34-.075l-.006.003c-.765.028-1.546.053-2.338.075"/><path clip-path="url(#b)" fill="#9D1013" d="M4.842 23.537v-2.272l6.957-6.98c.79-.02 1.57-.044 2.335-.07l-9.293 9.322"/><path clip-path="url(#b)" fill="#C17960" d="M7.094 14.368l.007-.007c.775-.002 1.54-.013 2.292-.027l-.004.007c-.754.01-1.516.02-2.294.028"/><path clip-path="url(#b)" fill="#9D1013" d="M4.842 18.9v-2.272l2.254-2.258c.772-.007 1.538-.018 2.29-.03L4.843 18.9"/><path clip-path="url(#b)" fill="#C17960" d="M16.595 14.11l.003-.004c.81-.04 1.61-.08 2.392-.124l-.003.003c-.785.046-1.58.086-2.392.125"/><path clip-path="url(#b)" fill="#9D1013" d="M4.842 28.174v-2.27L16.596 14.11c.81-.04 1.604-.083 2.387-.125l-14.14 14.19M6.513 96.075c-.226-.545-.427-1.098-.61-1.663l52.317-52.52v2.27L6.513 96.076"/><path clip-path="url(#b)" fill="#C17960" d="M26.546 13.4l.003-.003c.864-.087 1.705-.177 2.528-.27l-.007.007c-.82.094-1.663.18-2.524.266"/><path clip-path="url(#b)" fill="#9D1013" d="M4.842 37.45v-2.276L26.546 13.4c.86-.085 1.708-.17 2.527-.265L4.843 37.45"/><path clip-path="url(#b)" fill="#C17960" d="M31.753 12.812l.003-.003c.902-.12 1.78-.24 2.626-.363l-.003.003c-.852.125-1.725.243-2.627.362"/><path clip-path="url(#b)" fill="#9D1013" d="M4.842 42.087v-2.27l26.91-27.005c.903-.116 1.778-.238 2.627-.362L4.84 42.087M4.842 65.282v-2.28L58.22 9.433v2.273"/><path clip-path="url(#b)" fill="#C17960" d="M50.34 117.044c-.516-.244-1.038-.482-1.572-.7l.004-.005c.533.215 1.06.445 1.578.69l-.01.014"/><path clip-path="url(#b)" fill="#9D1013" d="M50.35 117.03c-.52-.245-1.042-.47-1.576-.69l9.445-9.486v2.27l-7.87 7.905"/><path clip-path="url(#b)" fill="#C17960" d="M43.52 114.604c-.558-.146-1.115-.3-1.682-.44.566.14 1.127.286 1.686.44h-.003"/><path clip-path="url(#b)" fill="#9D1013" d="M43.527 114.598c-.56-.154-1.12-.294-1.69-.44-.036-.007-.07-.014-.11-.02L58.22 97.562v2.28l-14.693 14.755"/><path clip-path="url(#b)" fill="#C17960" d="M47.05 115.71c-.562-.203-1.127-.393-1.704-.567l.01-.014c.578.18 1.146.362 1.705.558l-.01.02"/><path clip-path="url(#b)" fill="#9D1013" d="M47.062 115.694c-.563-.195-1.13-.384-1.707-.565L58.22 102.21v2.272l-11.158 11.21"/><path clip-path="url(#b)" fill="#C17960" d="M39.834 113.668l-1.817-.447 1.817.448z"/><path clip-path="url(#b)" fill="#9D1013" d="M39.834 113.668l-1.816-.447 20.2-20.29v2.272l-18.384 18.466"/><path clip-path="url(#b)" fill="#C17960" d="M55.97 120.67c-.408-.354-.813-.71-1.238-1.032h.004c.424.32.844.656 1.256 1.013l-.022.02"/><path clip-path="url(#b)" fill="#9D1013" d="M55.99 120.65c-.408-.356-.825-.69-1.255-1.013l3.484-3.502v2.277l-2.23 2.238"/><path clip-path="url(#b)" fill="#C17960" d="M53.32 118.687c-.464-.294-.94-.573-1.423-.84l.017-.02c.484.265.956.545 1.42.845l-.013.015"/><path clip-path="url(#b)" fill="#9D1013" d="M53.336 118.672c-.465-.3-.938-.58-1.424-.845l6.306-6.333v2.272l-4.882 4.906M8.07 99.158c-.29-.476-.56-.965-.813-1.46l50.963-51.17v2.276L8.07 99.158M36.125 112.752l-1.82-.447L58.22 88.282v2.28"/><path clip-path="url(#b)" fill="#C17960" d="M58.22 122.894c-.33-.384-.688-.727-1.036-1.076l.023-.027c.346.356.683.72 1.012 1.104"/><path clip-path="url(#b)" fill="#9D1013" d="M58.22 122.894c-.33-.384-.667-.748-1.013-1.104l1.012-1.014v2.118M12.272 104.218c-.402-.356-.785-.727-1.157-1.11l47.105-47.3v2.27l-45.948 46.14M14.884 106.237c-.455-.3-.895-.614-1.325-.95l44.658-44.84v2.272l-43.334 43.517M17.877 107.874c-.515-.237-1.022-.49-1.517-.755l41.86-42.034v2.277l-40.343 40.51M10 101.862c-.35-.42-.677-.846-.99-1.285L58.22 51.17v2.27L10 101.863"/><path clip-path="url(#b)" fill="#C17960" d="M24.99 110.013l-1.816-.45v-.005"/><path clip-path="url(#b)" fill="#9D1013" d="M24.993 110.013l-1.82-.45L58.22 74.367v2.272M21.293 109.083c-.587-.16-1.166-.336-1.73-.538l38.656-38.82v2.272l-36.927 37.086"/><path clip-path="url(#b)" fill="#C17960" d="M28.702 110.928l-1.817-.447 1.817.448z"/><path clip-path="url(#b)" fill="#9D1013" d="M28.702 110.928l-1.817-.448L58.22 79.007v2.272L28.7 110.927M32.412 111.837l-1.818-.448L58.22 83.64v2.28"/><path clip-path="url(#b)" fill="#8B0E04" d="M6.927 89.777V16.464c38.92-.266 51.3-8.68 51.3-8.68s14.962 8.368 53.378 8.662V14.38c-39.973 0-53.382-8.68-53.382-8.68s-13.41 8.68-53.383 8.68v73.314c0 6.55 2.902 12.568 7.604 16.67-3.452-3.933-5.517-9.07-5.517-14.587M58.2 122.873l.02.02h.004"/><path clip-path="url(#b)" fill="#8B0E04" d="M106.858 47.333l-2.086-2.083H76.39l-.003 1.346-1.35-1.346H62.985l-4.227 8.765-3.234-6.682-2.086-2.083H41.42v8.1c-.36-.702-.854-1.362-1.522-2.033L36.19 47.62c-1.753-1.75-3.218-2.37-5.592-2.37H11.674v32.787l2.083 2.083h11.53v-9.345H26.7l3.297 7.262 2.086 2.083h22.823V71.083l.412.865.51 1.063 2.082 2.083h4.83l.893-1.88v4.822l2.086 2.083h11.404v-1.303l1.285 1.28 28.45.02V69.705l-1.83-1.838v-9.49l-.612-.636h2.44V47.333zM28.528 57.82v.102l-.04.035-.657.657-.086.087H25.286v-1.67h3.243v.79zm12.89 15.764l-3.048-6.788 1.54-1.56c.65-.658 1.144-1.245 1.51-1.898v10.246z"/><path clip-path="url(#b)" fill="#FFF" d="M34.063 64.317l2.432-2.47c1.328-1.33 1.7-2.035 1.7-3.824v-3.48c0-1.584-.372-2.664-1.7-3.992l-1.622-1.617c-1.33-1.327-2.326-1.824-4.276-1.824H13.535v29.06h7.806v-9.346h5.61l4.246 9.345h8.2l-5.333-11.853zM21.34 53.085h6.434c.666 0 1.042.164 1.493.622l.543.545c.456.455.58.787.58 1.45v2.12c0 .663-.124.99-.58 1.45l-.667.663c-.456.458-.788.625-1.45.625H21.34v-7.475zM65.493 58.495V76.17h7.68V47.11H64.15l-5.93 12.3-5.95-12.3h-8.99v29.06h7.68V58.424L57 71.145h2.477M86.056 69.487v-4.86h15.023v-6.47H86.055V53.79h16.852v-6.677H78.25s-.013 28.687-.027 29.057h24.685v-6.682H86.056z"/></svg>