<svg xmlns="http://www.w3.org/2000/svg" xmlns:xlink="http://www.w3.org/1999/xlink" width="367.616" height="132.615" viewBox="0 0 367.616 132.615"><defs><path id="a" d="M0 0h367.616v132.614H0z"/></defs><clipPath id="b"><use xlink:href="#a" overflow="visible"/></clipPath><path clip-path="url(#b)" fill="#B10F21" d="M132.136 9.534h14.118c4.887 0 9.698 2.21 9.698 7.796 0 2.98-1.435 5.815-4.344 6.944v.073c2.948.703 3.795 4 4.036 6.636.075 1.167.188 5.235 1.162 6.245h-7.138c-.624-.93-.737-3.652-.812-4.424-.194-2.792-.663-5.66-4.037-5.66h-5.47v10.084h-7.214V9.534zm7.215 12.017h6.052c2.177 0 3.335-1.155 3.335-3.252 0-2.055-1.628-2.986-3.646-2.986h-5.74v6.24zM172.283 8.948c8.724 0 13.652 6.406 13.652 14.432 0 8.03-4.928 14.43-13.652 14.43-8.73 0-13.656-6.4-13.656-14.43 0-8.026 4.924-14.432 13.656-14.432m0 22.65c4.655 0 6.437-4.105 6.437-8.218 0-4.11-1.782-8.223-6.437-8.223-4.657 0-6.437 4.113-6.437 8.223 0 4.113 1.78 8.22 6.437 8.22M207.977 19.137c-.388-2.792-2.562-4.262-5.588-4.262-4.66 0-6.438 4.108-6.438 8.22 0 4.11 1.778 8.22 6.437 8.22 3.375 0 5.31-1.936 5.587-5.123h7.21c-.385 7.14-5.627 11.33-12.637 11.33-8.38 0-13.81-6.398-13.81-14.426 0-8.032 5.43-14.433 13.81-14.433 5.97 0 12.45 3.804 12.637 10.474h-7.21zM218.618 9.532h7.213v10.625l9.115-10.625h8.96l-10.24 10.898 11.52 16.795h-8.96l-7.448-11.634-2.946 3.1v8.535h-7.212M262.077 26.91v10.315h-7.22V26.91L244.78 9.53h8.17l5.514 11.25 5.515-11.25h8.18M132.138 44.438h10.624l4.777 18.466h.074l4.77-18.466h10.63v27.698h-6.79V51.113h-.075l-5.822 21.023h-5.505L139 51.113h-.07v21.023h-6.792M180.1 43.858c8.724 0 13.644 6.402 13.644 14.433 0 8.028-4.92 14.43-13.645 14.43-8.732 0-13.657-6.4-13.657-14.43S171.367 43.86 180.1 43.86m0 22.656c4.646 0 6.437-4.117 6.437-8.223 0-4.108-1.79-8.225-6.438-8.225-4.658 0-6.447 4.117-6.447 8.226 0 4.107 1.79 8.224 6.446 8.224M221.17 60.69c0 8.032-3.685 12.034-12.064 12.034-8.376 0-12.057-4.002-12.057-12.033V44.44h7.212v16.68c0 3.575 1.32 5.396 4.844 5.396 3.53 0 4.854-1.82 4.854-5.396v-16.68h7.21V60.69zM225.74 44.438h7.408l9.62 17.07h.082V44.44h6.783v27.698h-7.405l-9.624-17.263h-.078v17.263h-6.786M276.9 50.648h-8.26v21.488h-7.212V50.648h-8.27v-6.21h23.743M284.824 44.44h7.328l10.358 27.693h-7.524l-1.71-4.963h-9.658l-1.74 4.963h-7.408l10.354-27.692zm.465 17.377h6.28l-3.06-9.694h-.084l-3.137 9.694zM304.908 44.438h7.213v27.698h-7.212zM316.685 44.438h7.402l9.624 17.07h.074V44.44h6.797v27.698h-7.41l-9.614-17.263h-.08v17.263h-6.79M132.138 79.35h22.065v5.776h-14.85v4.854h13.576v5.588h-13.577v5.273h15.24v6.204h-22.455M181.192 109.914l-3.808-3.722c-1.826.933-3.994 1.44-6.436 1.44-8.73 0-13.66-6.406-13.66-14.434 0-8.023 4.928-14.43 13.66-14.43 8.72 0 13.648 6.406 13.648 14.43 0 3.952-1.2 7.485-3.45 10.086l3.337 3.22-3.29 3.41zm-7.765-14.154l2.715 2.635c.895-1.475 1.242-3.33 1.242-5.196 0-4.11-1.782-8.224-6.436-8.224-4.655 0-6.444 4.113-6.444 8.223s1.79 8.22 6.444 8.22c.542 0 1.007-.03 1.433-.155l-2.176-2.14 3.223-3.365zM212.104 95.603c0 8.027-3.684 12.032-12.064 12.032-8.38 0-12.062-4.005-12.062-12.032V79.35h7.213v16.68c0 3.567 1.325 5.39 4.85 5.39 3.53 0 4.855-1.822 4.855-5.39V79.35h7.21v16.253zM216.668 79.35h7.213v27.694h-7.212zM228.448 79.35h13.144c5.158 0 10.01 2.365 10.01 8.92 0 6.864-3.92 9.542-10.01 9.542h-5.934v9.232h-7.21V79.35zm7.21 12.88h4.85c2.25 0 3.873-.936 3.873-3.452 0-2.604-1.663-3.648-3.87-3.648h-4.852v7.1zM254.753 79.35h10.627l4.773 18.462h.08l4.768-18.463h10.628v27.694h-6.79V86.017h-.073l-5.82 21.027h-5.507l-5.815-21.027h-.077v21.027h-6.793M290.188 79.35h22.073v5.776H297.41v4.854h13.573v5.588H297.41v5.273h15.244v6.204h-22.464M317.09 79.35h7.41l9.612 17.067h.08V79.35h6.79v27.694h-7.41l-9.618-17.256h-.077v17.256h-6.786M367.616 85.56h-8.265v21.484h-7.215V85.56h-8.262v-6.214h23.743"/><path clip-path="url(#b)" fill="#8B0E04" d="M116.443 9.535H111.6C70.41 9.535 58.22 0 58.22 0S46.036 9.535 4.84 9.535H.002V87.69c0 7.906 3.332 14.902 8.942 20.162 3.56 3.84 8.25 6.79 13.673 8.125l19.99 4.927c5.13 1.266 10.378 3.017 13.992 7.228l3.707 4.483 3.708-4.483c3.614-4.21 8.864-5.962 13.995-7.228l19.986-4.927c12.093-2.974 20.535-13.755 20.535-26.203V11.618l-2.087-2.083"/><path clip-path="url(#b)" fill="#FFF" d="M58.22 127.006l2.012-2.415c4.026-4.686 9.66-6.583 15.155-7.938l19.99-4.928c11.086-2.733 18.833-12.612 18.833-24.033V11.77h-2.61c-41.12 0-53.38-9.175-53.38-9.175S45.96 11.77 4.84 11.77H2.235v75.92c0 11.422 7.744 21.3 18.83 24.034l19.99 4.928c5.492 1.355 11.128 3.253 15.154 7.94l2.01 2.414"/><path clip-path="url(#b)" fill="#B10F21" d="M58.22 122.893c4.307-5.02 10.128-7.196 16.548-8.77l19.986-4.93c9.88-2.435 16.848-11.332 16.848-21.498V14.38c-39.972 0-53.38-8.683-53.38-8.683S44.81 14.38 4.84 14.38v73.314c0 10.166 6.97 19.063 16.852 21.5l19.986 4.927c6.415 1.577 12.24 3.755 16.543 8.773"/><path clip-path="url(#b)" fill="#9D1013" d="M5.4 92.552c-.142-.633-.257-1.275-.343-1.93L58.22 37.257v2.27L5.4 92.553M4.842 69.917V67.64l53.375-53.574v2.275"/><path clip-path="url(#b)" fill="#C17960" d="M49.077 9.333l.003-.003c1.253-.37 2.357-.73 3.334-1.075l-.003.003c-.972.344-2.082.706-3.333 1.075"/><path clip-path="url(#b)" fill="#9D1013" d="M4.842 55.998v-2.27L49.075 9.33c1.253-.366 2.362-.728 3.336-1.072L4.843 55.998"/><path clip-path="url(#b)" fill="#C17960" d="M56.337 6.682l.004-.003c1.278-.595 1.872-.97 1.88-.978-.048.027-.64.403-1.883.98"/><path clip-path="url(#b)" fill="#9D1013" d="M4.842 60.64v-2.272L56.335 6.682c1.246-.575 1.836-.95 1.882-.98V7.07L4.842 60.64M4.842 74.555V72.28l53.375-53.576v2.27M4.842 79.192V76.92l53.375-53.58v2.272M4.873 88.44c-.007-.25-.033-.497-.033-.75V86.2l53.377-53.584v2.27L4.873 88.44M4.842 83.833v-2.27l53.375-53.58v2.27"/><path clip-path="url(#b)" fill="#C17960" d="M37.42 11.966c.873-.15 1.703-.304 2.512-.458l-.003.003c-.807.158-1.644.31-2.51.456"/><path clip-path="url(#b)" fill="#9D1013" d="M4.842 46.723v-2.27L37.17 12.01c.085-.016.167-.03.25-.043.866-.147 1.7-.297 2.508-.45L4.842 46.722"/><path clip-path="url(#b)" fill="#C17960" d="M21.502 13.82v-.002c.842-.056 1.653-.12 2.455-.188l-.003.003c-.802.068-1.618.132-2.452.188"/><path clip-path="url(#b)" fill="#9D1013" d="M4.842 32.81v-2.27l16.66-16.718c.834-.058 1.654-.123 2.453-.187L4.842 32.81"/><path clip-path="url(#b)" fill="#C17960" d="M42.886 10.907l.003-.003c1.05-.23 2.03-.46 2.96-.697l-.008.007c-.925.232-1.91.464-2.956.693"/><path clip-path="url(#b)" fill="#9D1013" d="M4.842 51.36v-2.27l38.046-38.183c1.045-.23 2.028-.463 2.957-.695L4.842 51.362"/><path clip-path="url(#b)" fill="#C17960" d="M11.796 14.288l.004-.003c.795-.02 1.57-.047 2.34-.075l-.006.003c-.765.028-1.546.052-2.338.075"/><path clip-path="url(#b)" fill="#9D1013" d="M4.842 23.537v-2.27l6.956-6.98c.79-.02 1.57-.045 2.336-.072l-9.292 9.322"/><path clip-path="url(#b)" fill="#C17960" d="M7.094 14.368l.007-.007c.773-.002 1.54-.013 2.292-.027l-.004.007c-.755.01-1.518.02-2.294.028"/><path clip-path="url(#b)" fill="#9D1013" d="M4.842 18.9v-2.272l2.254-2.257c.772-.006 1.538-.017 2.29-.03L4.84 18.9"/><path clip-path="url(#b)" fill="#C17960" d="M16.594 14.11l.003-.004c.81-.038 1.61-.08 2.392-.124l-.006.004c-.782.045-1.577.085-2.39.124"/><path clip-path="url(#b)" fill="#9D1013" d="M4.842 28.174v-2.27L16.596 14.11c.81-.04 1.604-.084 2.387-.125L4.843 28.174M6.512 96.075c-.225-.545-.426-1.097-.608-1.663L58.22 41.89v2.27L6.51 96.076"/><path clip-path="url(#b)" fill="#C17960" d="M26.543 13.4l.005-.003c.865-.088 1.706-.177 2.528-.27l-.007.007c-.82.093-1.663.18-2.527.266"/><path clip-path="url(#b)" fill="#9D1013" d="M4.842 37.45v-2.276L26.545 13.4c.86-.086 1.707-.17 2.526-.266L4.843 37.45"/><path clip-path="url(#b)" fill="#C17960" d="M31.752 12.812l.003-.003c.9-.12 1.78-.24 2.626-.363l-.002.003c-.85.126-1.724.242-2.626.362"/><path clip-path="url(#b)" fill="#9D1013" d="M4.842 42.086v-2.27L31.75 12.81c.903-.116 1.78-.238 2.628-.362L4.842 42.086M4.842 65.28V63L58.217 9.433v2.274"/><path clip-path="url(#b)" fill="#C17960" d="M50.34 117.04c-.517-.24-1.04-.48-1.572-.696l.004-.007c.533.217 1.06.448 1.578.692l-.01.01"/><path clip-path="url(#b)" fill="#9D1013" d="M50.35 117.03c-.52-.245-1.043-.473-1.577-.693l9.444-9.484v2.27l-7.868 7.906"/><path clip-path="url(#b)" fill="#C17960" d="M43.52 114.603c-.558-.15-1.115-.3-1.682-.443.566.14 1.127.286 1.686.44l-.003.003"/><path clip-path="url(#b)" fill="#9D1013" d="M43.524 114.596c-.557-.153-1.12-.297-1.688-.44-.037-.007-.07-.018-.112-.024l16.493-16.567v2.274l-14.693 14.756"/><path clip-path="url(#b)" fill="#C17960" d="M47.048 115.705c-.562-.2-1.127-.39-1.704-.566l.01-.012c.577.18 1.146.363 1.705.56l-.012.017"/><path clip-path="url(#b)" fill="#9D1013" d="M47.06 115.69c-.56-.195-1.13-.384-1.706-.562l12.864-12.92v2.275L47.06 115.69"/><path clip-path="url(#b)" fill="#C17960" d="M39.834 113.667l-1.817-.447 1.817.447z"/><path clip-path="url(#b)" fill="#9D1013" d="M39.834 113.667l-1.817-.448 20.2-20.294V95.2l-18.383 18.467"/><path clip-path="url(#b)" fill="#C17960" d="M55.97 120.667c-.408-.353-.813-.713-1.238-1.03h.003c.425.317.844.653 1.256 1.013l-.02.017"/><path clip-path="url(#b)" fill="#9D1013" d="M55.99 120.646c-.41-.354-.827-.688-1.257-1.014l3.484-3.498v2.275l-2.228 2.236"/><path clip-path="url(#b)" fill="#C17960" d="M53.32 118.685c-.466-.297-.942-.576-1.425-.842l.018-.018c.482.266.956.545 1.42.846l-.014.015"/><path clip-path="url(#b)" fill="#9D1013" d="M53.335 118.667c-.465-.297-.938-.576-1.424-.842l6.306-6.336v2.274l-4.88 4.903M8.07 99.154c-.29-.476-.56-.96-.813-1.457l50.96-51.17v2.276L8.07 99.153M36.124 112.75l-1.82-.446 23.913-24.022v2.275"/><path clip-path="url(#b)" fill="#C17960" d="M58.217 122.89c-.33-.385-.687-.725-1.035-1.077l.023-.024c.347.35.684.715 1.012 1.1"/><path clip-path="url(#b)" fill="#9D1013" d="M58.217 122.89c-.33-.385-.666-.75-1.012-1.102l1.012-1.018v2.12M12.27 104.217c-.4-.36-.784-.73-1.156-1.114l47.104-47.297v2.27l-45.947 46.14M14.884 106.234c-.455-.297-.895-.615-1.325-.947l44.656-44.84v2.27l-43.332 43.517M17.877 107.87c-.516-.238-1.022-.486-1.517-.755l41.857-42.03v2.274l-40.34 40.51M9.998 101.86c-.348-.417-.676-.844-.99-1.284L58.22 51.17v2.27l-48.22 48.42"/><path clip-path="url(#b)" fill="#C17960" d="M24.99 110.008l-1.817-.447v-.003"/><path clip-path="url(#b)" fill="#9D1013" d="M24.992 110.008l-1.82-.447 35.045-35.194v2.27M21.293 109.08c-.587-.158-1.166-.333-1.73-.54l38.653-38.814v2.27L21.293 109.08"/><path clip-path="url(#b)" fill="#C17960" d="M28.702 110.923l-1.817-.447 1.817.447z"/><path clip-path="url(#b)" fill="#9D1013" d="M28.702 110.923l-1.818-.447 31.333-31.47v2.273l-29.515 29.643M32.41 111.835l-1.816-.447L58.22 83.64v2.276"/><path clip-path="url(#b)" fill="#8B0E04" d="M6.926 89.774v-73.31c38.92-.267 51.298-8.68 51.298-8.68s14.962 8.368 53.377 8.662V14.38C71.63 14.38 58.22 5.7 58.22 5.7s-13.408 8.676-53.38 8.676V87.69c0 6.553 2.902 12.567 7.604 16.673-3.452-3.938-5.518-9.074-5.518-14.59M58.198 122.87l.02.023.005-.004"/><path clip-path="url(#b)" fill="#8B0E04" d="M106.854 47.332l-2.086-2.083h-28.38l-.003 1.345-1.35-1.346H62.983l-4.227 8.764-3.234-6.682-2.085-2.083H41.418v8.1c-.358-.702-.853-1.363-1.522-2.034L36.19 47.62c-1.754-1.752-3.218-2.37-5.593-2.37H11.674V78.03l2.083 2.083H25.287V70.77H26.7l3.297 7.262 2.086 2.083H54.907V71.078l.41.867.51 1.062 2.082 2.083h4.83l.89-1.877v4.819l2.087 2.083h11.405v-1.3l1.284 1.282 28.448.018v-10.41l-1.828-1.842v-9.488l-.61-.636h2.438V47.33zM28.528 57.82v.1l-.04.036-.66.657-.084.087H25.286v-1.67h3.243v.79zm12.89 15.76l-3.05-6.783 1.54-1.562c.65-.657 1.145-1.244 1.51-1.898V73.58z"/><path clip-path="url(#b)" fill="#FFF" d="M34.06 64.315l2.435-2.47c1.328-1.33 1.7-2.035 1.7-3.824v-3.48c0-1.582-.372-2.662-1.7-3.99l-1.622-1.618c-1.33-1.328-2.326-1.824-4.276-1.824H13.535V76.17h7.805v-9.345h5.61l4.245 9.345h8.2L34.06 64.315zM21.34 53.083h6.434c.666 0 1.042.165 1.492.622l.544.545c.456.454.58.786.58 1.45v2.118c0 .664-.124.993-.58 1.45l-.67.664c-.454.458-.785.625-1.448.625H21.34v-7.474zM65.49 58.494V76.17h7.68V47.107h-9.02l-5.93 12.3-5.952-12.3h-8.99v29.06h7.68V58.424L57 71.143h2.476M86.054 69.484v-4.857h15.023v-6.472H86.054V53.79h16.852v-6.678H78.25s-.015 28.684-.03 29.054h24.686v-6.682H86.054z"/></svg>